<svg width="824" height="824" viewBox="0 0 824 824" fill="none" xmlns="http://www.w3.org/2000/svg">
<rect width="824" height="824" rx="180" fill="#757DF0"/>
<path fill-rule="evenodd" clip-rule="evenodd" d="M432.976 214.047H667.891V610.758H432.976V214.047ZM432.922 261.926H619.526V289.285H432.922V261.926ZM432.922 316.645H619.526V344.004H432.922V316.645ZM432.922 371.363H619.526V398.723H432.922V371.363ZM432.922 426.082H619.526V453.441H432.922V426.082ZM432.922 480.801H619.526V508.16H432.922V480.801ZM432.922 535.52H619.526V562.879H432.922V535.52Z" fill="white"/>
<path fill-rule="evenodd" clip-rule="evenodd" d="M168.794 504.178H168.749L156.914 610.758H514.145L525.728 504.178H303.566L549.284 326.674H358.963L168.794 504.178ZM192.053 326.674L203.888 214.047H560.867L549.284 326.674H192.053Z" fill="white"/>
</svg>
