<svg width="148" height="24" viewBox="0 0 148 24" fill="none" xmlns="http://www.w3.org/2000/svg">
<rect width="24" height="24" rx="12" fill="#757DF0"/>
<path fill-rule="evenodd" clip-rule="evenodd" d="M12.611 6.23438H19.4531V17.7891H12.611V6.23438ZM12.6094 7.62891H18.0444V8.42578H12.6094V7.62891ZM12.6094 9.22266H18.0444V10.0195H12.6094V9.22266ZM12.6094 10.8164H18.0444V11.6133H12.6094V10.8164ZM12.6094 12.4102H18.0444V13.207H12.6094V12.4102ZM12.6094 14.0039H18.0444V14.8008H12.6094V14.0039ZM12.6094 15.5977H18.0444V16.3945H12.6094V15.5977Z" fill="white"/>
<path fill-rule="evenodd" clip-rule="evenodd" d="M4.91633 14.6848H4.91503L4.57031 17.7891H14.9751L15.3125 14.6848H8.84172L15.9986 9.51477H10.4552L4.91633 14.6848ZM5.59378 9.51477L5.9385 6.23438H16.3359L15.9986 9.51477H5.59378Z" fill="white"/>
<path d="M31.8 19.544L30.36 17.552C30.68 16.88 31.08 16.064 31.56 15.104C32.056 14.128 32.76 12.856 33.672 11.288C34.264 10.264 34.728 9.464 35.064 8.888C35.416 8.312 35.688 7.864 35.88 7.544C36.072 7.208 36.24 6.912 36.384 6.656H35.256C34.712 6.656 34.224 6.704 33.792 6.8C33.36 6.88 32.912 7.048 32.448 7.304H31.992L30.504 5.072L30.672 4.664H37.608L38.976 6.656C38.688 7.2 38.432 7.688 38.208 8.12C37.984 8.536 37.752 8.96 37.512 9.392C37.288 9.824 37.032 10.296 36.744 10.808C36.472 11.32 36.144 11.928 35.76 12.632C35.024 13.976 34.464 15.016 34.08 15.752C33.696 16.472 33.4 17.064 33.192 17.528H34.992C35.312 17.528 35.744 17.504 36.288 17.456C36.848 17.408 37.44 17.336 38.064 17.24L39.336 19.112L39.192 19.544H31.8ZM48.9801 19.952C48.6121 19.84 48.2841 19.72 47.9961 19.592C47.7241 19.464 47.4201 19.304 47.0841 19.112C46.7641 19.384 46.4361 19.584 46.1001 19.712C45.7801 19.824 45.3721 19.88 44.8761 19.88C44.4921 19.88 44.0281 19.784 43.4841 19.592C42.9561 19.4 42.4281 19.144 41.9001 18.824C41.3881 18.504 40.9561 18.136 40.6041 17.72C40.2681 17.304 40.1001 16.88 40.1001 16.448C40.1001 16.272 40.1241 15.768 40.1721 14.936C40.2201 14.088 40.2441 12.864 40.2441 11.264C40.2441 10.128 40.5561 9.312 41.1801 8.816C41.8041 8.32 42.6761 8.072 43.7961 8.072C44.1321 8.072 44.4841 8.136 44.8521 8.264C45.2361 8.392 45.5801 8.544 45.8841 8.72C45.9001 7.872 45.9401 7.096 46.0041 6.392C46.0681 5.688 46.1561 5.112 46.2681 4.664H45.2361L43.9161 3.104L44.0841 2.72H47.2041L48.6201 4.544C48.5081 5.168 48.4201 5.88 48.3561 6.68C48.2921 7.464 48.2601 8.264 48.2601 9.08V12.704C48.2601 13.488 48.2441 14.296 48.2121 15.128C48.1801 15.944 48.1721 16.816 48.1881 17.744C48.2041 18.224 48.2841 18.552 48.4281 18.728C48.5721 18.904 48.8761 19.088 49.3401 19.28L48.9801 19.952ZM42.5001 17.096C42.5001 17.368 42.5641 17.56 42.6921 17.672C42.8361 17.784 43.0521 17.84 43.3401 17.84C44.2041 17.84 44.8441 17.64 45.2601 17.24C45.6761 16.84 45.8841 16.28 45.8841 15.56V10.28C45.5801 10.216 45.2521 10.184 44.9001 10.184C44.2281 10.184 43.6761 10.328 43.2441 10.616C42.8281 10.904 42.6121 11.448 42.5961 12.248L42.5001 17.096ZM52.4687 6.536L50.8847 4.832V4.592C51.3167 4.016 51.9007 3.512 52.6367 3.08L54.2207 4.736L54.1967 5.024C53.8767 5.248 53.5727 5.496 53.2847 5.768C53.0127 6.04 52.7407 6.296 52.4687 6.536ZM54.6047 20.048C53.5807 19.664 52.7887 19.32 52.2287 19.016C51.6847 18.696 51.4127 18.408 51.4127 18.152C51.4127 17.928 51.4367 17.584 51.4847 17.12C51.5487 16.64 51.5807 16.176 51.5807 15.728V12.296C51.5807 11.88 51.5967 11.496 51.6287 11.144C51.6767 10.776 51.7487 10.456 51.8447 10.184H51.0527L49.7807 8.552L49.9487 8.144H53.0207L54.4127 10.016C54.2207 10.272 54.0927 10.592 54.0287 10.976C53.9807 11.36 53.9567 11.848 53.9567 12.44V15.992C53.9567 16.568 53.9327 17.08 53.8847 17.528C53.8367 17.96 53.8127 18.288 53.8127 18.512C53.8127 18.672 53.8687 18.8 53.9807 18.896C54.1087 18.976 54.4127 19.144 54.8927 19.4L54.6047 20.048ZM60.6829 19.808C60.4429 19.808 60.1149 19.72 59.6989 19.544C59.2829 19.352 58.8589 19.112 58.4269 18.824C57.9949 18.52 57.6269 18.208 57.3229 17.888C57.0189 17.552 56.8669 17.232 56.8669 16.928C56.8669 16.752 56.8749 16.568 56.8909 16.376C56.9069 16.184 56.9309 15.936 56.9629 15.632C56.9949 15.312 57.0189 14.888 57.0349 14.36C57.0509 13.832 57.0589 13.144 57.0589 12.296C57.0589 11.976 57.0589 11.64 57.0589 11.288C57.0589 10.936 57.0509 10.568 57.0349 10.184H56.6029L55.3789 8.576L55.5469 8.192C56.3949 8.096 56.9309 7.84 57.1549 7.424C57.3789 7.008 57.4909 6.376 57.4909 5.528L57.8989 5.384L59.3629 6.488C59.3629 6.776 59.3629 7.056 59.3629 7.328C59.3629 7.6 59.3629 7.872 59.3629 8.144H61.4029L62.6029 9.824L62.4349 10.184H59.3869C59.3869 10.76 59.3869 11.312 59.3869 11.84C59.3869 12.368 59.3869 12.872 59.3869 13.352C59.3869 14.28 59.3709 14.992 59.3389 15.488C59.3229 15.984 59.2989 16.352 59.2669 16.592C59.2349 16.832 59.2189 17.056 59.2189 17.264C59.2189 17.584 59.3869 17.744 59.7229 17.744C60.0109 17.744 60.3229 17.672 60.6589 17.528C60.9949 17.368 61.3069 17.176 61.5949 16.952H61.9309L63.0589 18.824C62.8349 19.096 62.4829 19.328 62.0029 19.52C61.5229 19.712 61.0829 19.808 60.6829 19.808ZM68.6406 19.88C68.2566 19.88 67.7926 19.784 67.2486 19.592C66.7046 19.4 66.1766 19.144 65.6646 18.824C65.1526 18.504 64.7206 18.136 64.3686 17.72C64.0326 17.304 63.8646 16.88 63.8646 16.448C63.8646 16.256 63.8886 15.696 63.9366 14.768C64.0006 13.84 64.0326 12.68 64.0326 11.288C64.0326 10.168 64.3606 9.344 65.0166 8.816C65.6726 8.288 66.6566 8.024 67.9686 8.024C68.3526 8.024 68.7766 8.144 69.2406 8.384C69.7206 8.624 70.1766 8.936 70.6086 9.32C71.0406 9.704 71.3926 10.112 71.6646 10.544C71.9526 10.96 72.0966 11.352 72.0966 11.72C72.0966 12.328 72.0806 12.984 72.0486 13.688C72.0326 14.392 72.0246 15.296 72.0246 16.4C72.0246 17.424 71.7446 18.264 71.1846 18.92C70.6246 19.56 69.7766 19.88 68.6406 19.88ZM67.1046 17.84C67.9846 17.84 68.6246 17.656 69.0246 17.288C69.4406 16.92 69.6486 16.376 69.6486 15.656C69.6486 15.144 69.6566 14.568 69.6726 13.928C69.6886 13.272 69.7046 12.672 69.7206 12.128C69.7366 11.568 69.7446 11.176 69.7446 10.952C69.7446 10.68 69.6966 10.48 69.6006 10.352C69.5046 10.208 69.3126 10.136 69.0246 10.136C68.1606 10.136 67.4966 10.288 67.0326 10.592C66.5846 10.88 66.3606 11.432 66.3606 12.248C66.3606 13.784 66.3446 14.944 66.3126 15.728C66.2806 16.496 66.2646 17.016 66.2646 17.288C66.2646 17.656 66.5446 17.84 67.1046 17.84ZM78.2884 20.216C76.9124 19.768 75.9204 19.384 75.3124 19.064C74.7044 18.728 74.4004 18.488 74.4004 18.344C74.4004 18.168 74.4244 17.864 74.4724 17.432C74.5364 17 74.5684 16.328 74.5684 15.416V12.44C74.5684 12.12 74.5844 11.744 74.6164 11.312C74.6484 10.864 74.6964 10.488 74.7604 10.184H73.8724L72.6244 8.528L72.7924 8.144H75.0484C75.1284 8.144 75.2724 8.264 75.4804 8.504C75.7044 8.728 75.9284 8.976 76.1524 9.248C76.4084 8.832 76.7604 8.528 77.2084 8.336C77.6724 8.144 78.1604 8.048 78.6724 8.048C78.9284 8.048 79.1204 8.064 79.2484 8.096L80.4484 9.776L80.2564 10.064C79.1364 10.048 78.3044 10.264 77.7604 10.712C77.2164 11.16 76.9444 11.984 76.9444 13.184V15.752C76.9444 16.552 76.9204 17.176 76.8724 17.624C76.8404 18.056 76.8244 18.344 76.8244 18.488C76.8244 18.584 76.8564 18.672 76.9204 18.752C76.9844 18.816 77.1364 18.896 77.3764 18.992C77.6324 19.088 78.0324 19.248 78.5764 19.472L78.2884 20.216Z" fill="black"/>
<path d="M93.52 19.664C92.832 19.664 92.168 19.608 91.528 19.496C90.904 19.368 90.384 19.216 89.968 19.04C89.568 18.848 89.368 18.664 89.368 18.488C89.368 18.072 89.408 17.448 89.488 16.616C89.584 15.784 89.632 14.744 89.632 13.496V10.784C89.632 9.728 89.672 8.872 89.752 8.216C89.848 7.544 89.944 7.024 90.04 6.656H89.224L88.024 5.048L88.216 4.664H90.232C90.936 4.664 91.6 4.656 92.224 4.64C92.848 4.624 93.368 4.616 93.784 4.616C94.216 4.616 94.68 4.76 95.176 5.048C95.688 5.32 96.16 5.672 96.592 6.104C97.04 6.52 97.4 6.96 97.672 7.424C97.96 7.888 98.104 8.312 98.104 8.696C98.104 9.672 98.08 10.672 98.032 11.696C98 12.72 97.984 13.824 97.984 15.008C97.984 16.304 97.8 17.288 97.432 17.96C97.064 18.632 96.544 19.088 95.872 19.328C95.216 19.552 94.432 19.664 93.52 19.664ZM94.576 6.752C94.192 6.752 93.832 6.768 93.496 6.8C93.176 6.816 92.832 6.864 92.464 6.944C92.352 7.36 92.256 7.88 92.176 8.504C92.096 9.112 92.056 9.816 92.056 10.616V14.096C92.056 15.008 92.04 15.744 92.008 16.304C91.992 16.864 91.952 17.336 91.888 17.72C92.08 17.768 92.312 17.792 92.584 17.792C93.544 17.792 94.272 17.512 94.768 16.952C95.264 16.376 95.512 15.384 95.512 13.976C95.512 13.16 95.528 12.36 95.56 11.576C95.592 10.776 95.616 10.056 95.632 9.416C95.664 8.776 95.68 8.288 95.68 7.952C95.68 7.536 95.592 7.232 95.416 7.04C95.256 6.848 94.976 6.752 94.576 6.752ZM104.609 19.88C104.225 19.88 103.761 19.784 103.217 19.592C102.673 19.4 102.145 19.144 101.633 18.824C101.121 18.504 100.689 18.136 100.337 17.72C100.001 17.304 99.8333 16.88 99.8333 16.448C99.8333 16.256 99.8573 15.696 99.9053 14.768C99.9693 13.84 100.001 12.68 100.001 11.288C100.001 10.168 100.329 9.344 100.985 8.816C101.641 8.288 102.625 8.024 103.937 8.024C104.321 8.024 104.745 8.144 105.209 8.384C105.689 8.624 106.145 8.936 106.577 9.32C107.009 9.704 107.361 10.112 107.633 10.544C107.921 10.96 108.065 11.352 108.065 11.72C108.065 12.328 108.049 12.984 108.017 13.688C108.001 14.392 107.993 15.296 107.993 16.4C107.993 17.424 107.713 18.264 107.153 18.92C106.593 19.56 105.745 19.88 104.609 19.88ZM103.073 17.84C103.953 17.84 104.593 17.656 104.993 17.288C105.409 16.92 105.617 16.376 105.617 15.656C105.617 15.144 105.625 14.568 105.641 13.928C105.657 13.272 105.673 12.672 105.689 12.128C105.705 11.568 105.713 11.176 105.713 10.952C105.713 10.68 105.665 10.48 105.569 10.352C105.473 10.208 105.281 10.136 104.993 10.136C104.129 10.136 103.465 10.288 103.001 10.592C102.553 10.88 102.329 11.432 102.329 12.248C102.329 13.784 102.313 14.944 102.281 15.728C102.249 16.496 102.233 17.016 102.233 17.288C102.233 17.656 102.513 17.84 103.073 17.84ZM115.961 16.28L117.977 17.576C117.657 18.328 117.193 18.904 116.585 19.304C115.993 19.704 115.321 19.904 114.569 19.904C114.089 19.904 113.577 19.8 113.033 19.592C112.489 19.368 111.977 19.088 111.497 18.752C111.017 18.416 110.617 18.064 110.297 17.696C109.993 17.328 109.841 16.984 109.841 16.664C109.841 16.456 109.841 16.136 109.841 15.704C109.857 15.272 109.865 14.824 109.865 14.36C109.881 13.88 109.889 13.48 109.889 13.16V11.192C109.889 10.136 110.209 9.336 110.849 8.792C111.489 8.232 112.345 7.952 113.417 7.952C113.753 7.952 114.145 8.056 114.593 8.264C115.041 8.456 115.481 8.72 115.913 9.056C116.345 9.376 116.705 9.736 116.993 10.136C117.281 10.52 117.425 10.904 117.425 11.288C117.425 11.704 117.409 12.072 117.377 12.392C117.345 12.696 117.305 12.976 117.257 13.232L114.785 12.752C114.913 11.984 114.977 11.312 114.977 10.736C114.977 10.464 114.921 10.28 114.809 10.184C114.713 10.088 114.553 10.04 114.329 10.04C112.953 10.04 112.265 10.728 112.265 12.104V14.024C112.265 15.048 112.249 15.8 112.217 16.28C112.201 16.744 112.193 17.112 112.193 17.384C112.193 17.56 112.273 17.696 112.433 17.792C112.593 17.888 112.793 17.936 113.033 17.936C113.625 17.936 114.129 17.816 114.545 17.576C114.961 17.32 115.337 16.912 115.673 16.352L115.961 16.28ZM123.178 19.928C121.962 19.928 121.01 19.536 120.322 18.752C119.634 17.952 119.154 16.872 118.882 15.512L119.65 15.296C119.954 16.064 120.298 16.608 120.682 16.928C121.082 17.248 121.618 17.408 122.29 17.408C123.058 17.408 123.706 17.192 124.234 16.76C124.778 16.328 125.05 15.8 125.05 15.176C125.05 14.824 124.922 14.648 124.666 14.648C124.458 14.648 124.154 14.696 123.754 14.792C123.37 14.888 122.986 14.992 122.602 15.104C122.218 15.2 121.93 15.248 121.738 15.248C121.45 15.248 121.154 15.112 120.85 14.84C120.562 14.568 120.29 14.224 120.034 13.808C119.778 13.376 119.57 12.928 119.41 12.464C119.25 12 119.17 11.568 119.17 11.168C119.17 10.224 119.466 9.432 120.058 8.792C120.666 8.152 121.53 7.832 122.65 7.832C123.61 7.832 124.394 8.088 125.002 8.6C125.61 9.112 126.074 9.896 126.394 10.952L125.554 11.24C125.122 10.552 124.466 10.208 123.586 10.208C122.818 10.208 122.17 10.408 121.642 10.808C121.114 11.208 120.85 11.712 120.85 12.32C120.85 12.64 121.002 12.8 121.306 12.8C121.546 12.8 121.858 12.752 122.242 12.656C122.626 12.544 123.01 12.44 123.394 12.344C123.778 12.248 124.09 12.2 124.33 12.2C124.698 12.2 125.058 12.408 125.41 12.824C125.762 13.24 126.05 13.768 126.274 14.408C126.498 15.048 126.61 15.704 126.61 16.376C126.61 17.448 126.314 18.312 125.722 18.968C125.13 19.608 124.282 19.928 123.178 19.928Z" fill="black"/>
</svg>
