<svg width="3840" height="2160" viewBox="0 0 3840 2160" fill="none" xmlns="http://www.w3.org/2000/svg">
  <defs>
    <linearGradient id="sky" x1="250" y1="120" x2="3430" y2="1960" gradientUnits="userSpaceOnUse">
      <stop stop-color="#BCE0F6"/>
      <stop offset="0.48" stop-color="#9DE7DC"/>
      <stop offset="1" stop-color="#FFE3A8"/>
    </linearGradient>
    <linearGradient id="hill" x1="2550" y1="1540" x2="3430" y2="2140" gradientUnits="userSpaceOnUse">
      <stop stop-color="#98D96D"/>
      <stop offset="1" stop-color="#5CAA51"/>
    </linearGradient>
    <linearGradient id="panelBlue" x1="0" y1="0" x2="1" y2="1">
      <stop stop-color="#ACE6FF"/>
      <stop offset="1" stop-color="#7BC8F8"/>
    </linearGradient>
    <linearGradient id="panelGreen" x1="0" y1="0" x2="1" y2="1">
      <stop stop-color="#A8F0CF"/>
      <stop offset="1" stop-color="#6CD7A7"/>
    </linearGradient>
    <linearGradient id="panelYellow" x1="0" y1="0" x2="1" y2="1">
      <stop stop-color="#FFE79A"/>
      <stop offset="1" stop-color="#FFBF62"/>
    </linearGradient>
    <filter id="shadow" x="-20%" y="-20%" width="140%" height="140%">
      <feDropShadow dx="0" dy="18" stdDeviation="26" flood-color="#16324A" flood-opacity="0.16"/>
    </filter>
    <filter id="softShadow" x="-20%" y="-20%" width="140%" height="140%">
      <feDropShadow dx="0" dy="10" stdDeviation="18" flood-color="#23435F" flood-opacity="0.12"/>
    </filter>
    <style>
      .line { stroke: #26384D; stroke-width: 10; stroke-linecap: round; stroke-linejoin: round; }
      .thin { stroke: #26384D; stroke-width: 7; stroke-linecap: round; stroke-linejoin: round; }
      .accent { stroke: #F2A24A; stroke-width: 10; stroke-linecap: round; stroke-linejoin: round; }
    </style>
  </defs>

  <rect width="3840" height="2160" fill="url(#sky)"/>

  <g opacity="0.92">
    <path d="M0 1572C126 1444 252 1404 374 1452C450 1294 620 1270 760 1342C824 1196 1006 1162 1140 1246C1296 1096 1492 1118 1612 1240H0V1572Z" fill="#DCF3F0"/>
    <path d="M1188 714C1252 652 1362 642 1446 690C1512 600 1660 588 1760 660C1848 640 1940 674 2002 738H1188V714Z" fill="#E2F6F3" opacity="0.72"/>
    <path d="M3050 368C3130 270 3290 248 3400 324C3470 218 3646 204 3772 286C3840 254 3910 278 3960 342V520H3050V368Z" fill="#EDF8F6" opacity="0.7"/>
  </g>

  <g opacity="0.2">
    <path d="M2190 660H2650" class="line"/>
    <path d="M2580 592L2672 660L2580 726" class="line"/>
    <path d="M2430 1148H2988" class="line"/>
    <path d="M2910 1080L3000 1148L2910 1216" class="line"/>
    <path d="M2680 1502H3256" class="line"/>
    <path d="M3186 1436L3278 1502L3186 1568" class="line"/>
  </g>

  <g filter="url(#shadow)">
    <rect x="2280" y="602" width="360" height="196" rx="34" fill="url(#panelBlue)" stroke="#26384D" stroke-width="10"/>
    <rect x="2750" y="900" width="390" height="204" rx="34" fill="url(#panelGreen)" stroke="#26384D" stroke-width="10"/>
    <rect x="2490" y="1252" width="418" height="216" rx="34" fill="url(#panelYellow)" stroke="#26384D" stroke-width="10"/>
    <rect x="3076" y="1376" width="324" height="184" rx="32" fill="url(#panelBlue)" stroke="#26384D" stroke-width="10"/>
  </g>

  <g filter="url(#softShadow)">
    <circle cx="2844" cy="478" r="90" fill="#C1EAFF" stroke="#26384D" stroke-width="10"/>
    <circle cx="2844" cy="462" r="10" fill="#26384D"/>
    <circle cx="2884" cy="462" r="10" fill="#26384D"/>
    <path d="M2828 510C2846 530 2872 530 2892 510" class="thin"/>

    <path d="M3334 374L3432 292L3530 374V520H3334V374Z" fill="#A7DCFF" stroke="#26384D" stroke-width="10"/>
    <path d="M3432 292V520" class="thin"/>
    <path d="M3334 374H3530" class="thin"/>

    <circle cx="3278" cy="610" r="76" fill="#FFE17D" stroke="#26384D" stroke-width="10"/>
    <circle cx="3250" cy="590" r="8" fill="#26384D"/>
    <circle cx="3306" cy="590" r="8" fill="#26384D"/>
    <path d="M3248 634C3266 652 3292 652 3312 634" class="thin"/>

    <rect x="2268" y="870" width="160" height="92" rx="22" fill="#9EDFF7" stroke="#26384D" stroke-width="10"/>
    <rect x="2268" y="980" width="160" height="92" rx="22" fill="#E8FBFF" stroke="#26384D" stroke-width="10"/>
    <rect x="2268" y="1090" width="160" height="92" rx="22" fill="#9EDFF7" stroke="#26384D" stroke-width="10"/>
    <path d="M2348 962V980" class="line"/>
    <path d="M2348 1072V1090" class="line"/>
    <path d="M2208 926H2166V1168" class="line"/>
    <path d="M2166 926L2128 956" class="thin"/>

    <path d="M2520 842L2606 786L2692 842V946L2606 1002L2520 946V842Z" fill="#D7FFF3" stroke="#26384D" stroke-width="10"/>
    <path d="M2606 786V1002" class="thin" opacity="0.4"/>
    <path d="M2520 842H2692" class="thin" opacity="0.4"/>

    <path d="M2910 854C2910 806 2872 768 2824 768C2778 768 2740 806 2740 854C2740 900 2778 934 2824 934C2872 934 2910 900 2910 854Z" fill="#B8F1D8" stroke="#26384D" stroke-width="10"/>
    <circle cx="2800" cy="846" r="8" fill="#26384D"/>
    <circle cx="2850" cy="846" r="8" fill="#26384D"/>
    <path d="M2798 882C2814 896 2838 896 2854 882" class="thin"/>

    <circle cx="3022" cy="1202" r="82" fill="#8ED7F8" stroke="#26384D" stroke-width="10"/>

    <path d="M3248 1120H3422" class="line"/>
    <path d="M3334 1034V1206" class="line"/>
    <path d="M3296 1082L3334 1034L3372 1082Z" fill="#FFA768" stroke="#26384D" stroke-width="10"/>

    <path d="M2684 1610H2818" class="line"/>
    <path d="M2750 1536V1688" class="line"/>
    <path d="M2702 1658C2734 1618 2772 1594 2814 1582" class="accent"/>
    <circle cx="2814" cy="1582" r="10" fill="#F2A24A"/>

    <rect x="2926" y="1262" width="188" height="248" rx="28" fill="#F2FDFF" stroke="#26384D" stroke-width="10"/>
    <path d="M3018 1294V1456" class="line" opacity="0.32"/>
    <path d="M2970 1430H3072" class="line" opacity="0.32"/>
    <path d="M3052 1292V1456" class="line" opacity="0.32"/>
    <path d="M3090 1292C3132 1350 3148 1398 3146 1456" class="accent"/>
  </g>

  <g>
    <path d="M2640 1764C2860 1640 3112 1646 3326 1768C3438 1832 3530 1920 3578 2048H2430C2478 1944 2538 1820 2640 1764Z" fill="url(#hill)"/>
    <path d="M2486 1956C2708 1824 2944 1804 3144 1868C3300 1916 3446 1998 3550 2048H2430C2450 2002 2462 1976 2486 1956Z" fill="#7CC162" opacity="0.7"/>
  </g>

  <g filter="url(#shadow)">
    <ellipse cx="3348" cy="1860" rx="166" ry="58" fill="#6A8EB4" opacity="0.22"/>

    <path d="M3276 1540C3334 1510 3412 1510 3470 1542C3530 1574 3568 1642 3578 1718C3590 1802 3558 1890 3492 1942C3416 2000 3302 2004 3222 1948C3146 1894 3106 1796 3120 1708C3132 1630 3186 1570 3276 1540Z" fill="#FFD45E" stroke="#26384D" stroke-width="10"/>
    <path d="M3188 1698C3200 1618 3256 1554 3338 1518C3310 1460 3310 1398 3352 1352C3410 1292 3500 1294 3564 1350C3616 1398 3632 1480 3598 1544C3660 1578 3696 1632 3702 1700C3710 1812 3634 1914 3518 1948C3414 1978 3296 1954 3218 1888C3192 1818 3184 1754 3188 1698Z" fill="#6FAA63"/>

    <circle cx="3326" cy="1660" r="22" fill="#26384D"/>
    <circle cx="3476" cy="1660" r="22" fill="#26384D"/>
    <circle cx="3330" cy="1654" r="8" fill="#FFFFFF"/>
    <circle cx="3480" cy="1654" r="8" fill="#FFFFFF"/>
    <path d="M3296 1774C3354 1816 3448 1816 3506 1774" class="line"/>
    <circle cx="3258" cy="1738" r="14" fill="#F7A9A0" opacity="0.72"/>
    <circle cx="3558" cy="1738" r="14" fill="#F7A9A0" opacity="0.72"/>

    <path d="M3258 1818C3318 1778 3382 1758 3454 1758C3520 1758 3576 1778 3624 1816C3650 1836 3664 1862 3666 1890C3670 1942 3636 1980 3568 1996C3502 2012 3426 1998 3364 1956C3304 1998 3224 2012 3156 1992C3090 1974 3056 1936 3060 1890C3062 1858 3080 1834 3110 1812C3156 1780 3216 1760 3282 1758C3272 1782 3264 1800 3258 1818Z" fill="#2E69D6" stroke="#26384D" stroke-width="10"/>
    <path d="M3234 1768L3176 1790L3198 1730" fill="#FFD374" stroke="#26384D" stroke-width="10"/>
    <path d="M3498 1802L3554 1828L3526 1768" fill="#FFD374" stroke="#26384D" stroke-width="10"/>

    <rect x="3280" y="1778" width="176" height="106" rx="14" fill="#173B73" stroke="#26384D" stroke-width="10"/>
    <circle cx="3368" cy="1830" r="28" fill="#D6F4FF"/>
    <path d="M3336 1830H3400" class="thin"/>
    <path d="M3368 1798V1862" class="thin"/>
  </g>
</svg>
