<svg width="512" height="512" viewBox="0 0 512 512" fill="none" xmlns="http://www.w3.org/2000/svg">
  <defs>
    <linearGradient id="bg" x1="96" y1="72" x2="420" y2="448" gradientUnits="userSpaceOnUse">
      <stop stop-color="#DDF8FF"/>
      <stop offset="1" stop-color="#C9F5D7"/>
    </linearGradient>
    <linearGradient id="banana" x1="182" y1="120" x2="346" y2="364" gradientUnits="userSpaceOnUse">
      <stop stop-color="#FFE97A"/>
      <stop offset="1" stop-color="#FFC93C"/>
    </linearGradient>
    <linearGradient id="cheek" x1="0" y1="0" x2="1" y2="1">
      <stop stop-color="#FFB3BA"/>
      <stop offset="1" stop-color="#FF8FA3"/>
    </linearGradient>
    <filter id="shadow" x="72" y="54" width="368" height="392" filterUnits="userSpaceOnUse" color-interpolation-filters="sRGB">
      <feDropShadow dx="0" dy="14" stdDeviation="18" flood-color="#6AB89A" flood-opacity="0.18"/>
    </filter>
  </defs>
  <rect width="512" height="512" rx="120" fill="url(#bg)"/>
  <circle cx="120" cy="118" r="26" fill="#F5FFFE" fill-opacity="0.72"/>
  <circle cx="378" cy="102" r="18" fill="#F5FFFE" fill-opacity="0.68"/>
  <circle cx="410" cy="146" r="10" fill="#F5FFFE" fill-opacity="0.72"/>
  <path d="M112 402C166 360 210 350 258 350C316 350 367 365 408 402V438H112V402Z" fill="#8AD4A1"/>
  <g filter="url(#shadow)">
    <path d="M330 120C300 106 258 112 228 136C195 163 177 210 179 260C181 311 209 357 254 383C287 402 334 401 365 379C335 377 304 359 284 335C260 306 251 270 255 238C259 203 275 172 302 148C313 138 322 129 330 120Z" fill="#8D5B2B"/>
    <path d="M311 102C282 94 245 99 216 118C171 148 144 202 145 262C147 329 184 392 245 422C298 447 362 437 401 397C364 404 322 390 292 359C261 327 246 283 249 242C252 196 275 152 311 120C320 112 326 107 331 103C324 103 317 103 311 102Z" fill="url(#banana)"/>
    <path d="M196 116C185 96 187 74 204 58C226 37 259 35 281 53C297 66 305 85 303 103C289 95 270 91 251 92C232 94 213 102 196 116Z" fill="#7CC48E"/>
    <path d="M178 142C167 137 156 135 146 136C136 137 129 143 128 152C127 161 132 171 142 176C151 181 165 180 176 173" stroke="#8D5B2B" stroke-width="10" stroke-linecap="round"/>
    <ellipse cx="242" cy="236" rx="16" ry="22" fill="#2D2A32"/>
    <ellipse cx="311" cy="229" rx="16" ry="22" fill="#2D2A32"/>
    <ellipse cx="246" cy="231" rx="4" ry="6" fill="#FFFDF6"/>
    <ellipse cx="315" cy="224" rx="4" ry="6" fill="#FFFDF6"/>
    <ellipse cx="220" cy="266" rx="17" ry="11" fill="url(#cheek)" fill-opacity="0.68"/>
    <ellipse cx="334" cy="258" rx="17" ry="11" fill="url(#cheek)" fill-opacity="0.68"/>
    <path d="M266 248C268 262 266 277 258 288" stroke="#8D5B2B" stroke-width="8" stroke-linecap="round"/>
    <path d="M242 309C257 322 284 323 301 308" stroke="#8D5B2B" stroke-width="10" stroke-linecap="round"/>
    <path d="M152 302C140 311 135 324 137 336C140 349 152 359 167 361C181 362 196 354 203 342" stroke="#8D5B2B" stroke-width="11" stroke-linecap="round"/>
    <path d="M351 312C363 321 368 334 366 346C363 359 351 369 336 371C322 372 307 364 300 352" stroke="#8D5B2B" stroke-width="11" stroke-linecap="round"/>
    <circle cx="147" cy="333" r="17" fill="#FFF9EF" stroke="#8D5B2B" stroke-width="8"/>
    <circle cx="356" cy="343" r="17" fill="#FFF9EF" stroke="#8D5B2B" stroke-width="8"/>
    <path d="M143 334L147 338L154 329" stroke="#7CC48E" stroke-width="6" stroke-linecap="round" stroke-linejoin="round"/>
    <path d="M352 344L356 348L363 339" stroke="#7CC48E" stroke-width="6" stroke-linecap="round" stroke-linejoin="round"/>
  </g>
</svg>
